<svg version="1.1" id="Layer_1" xmlns="http://www.w3.org/2000/svg" xmlns:xlink="http://www.w3.org/1999/xlink" x="0px" y="0px"
	 width="100%" viewBox="0 0 1024 1024" enable-background="new 0 0 1024 1024" xml:space="preserve">
<path fill="#ffffffff" opacity="1.000000" stroke="none" 
	d="
M492.000000,527.956543 
	C588.812134,527.866821 685.124329,527.775696 781.436462,527.685974 
	C789.361084,527.678589 789.487732,527.685669 789.294800,535.637329 
	C788.620239,563.436401 788.304688,591.255371 786.949280,619.022705 
	C786.112610,636.163940 786.767151,653.313538 785.443848,670.447815 
	C782.625366,706.942932 771.323547,740.031494 747.602112,768.354675 
	C727.392517,792.484863 702.237976,810.912170 676.821838,828.944580 
	C639.331543,855.543579 601.828735,882.143005 562.718262,906.354004 
	C547.142517,915.996033 531.352966,925.292236 515.731873,934.861816 
	C513.193359,936.416931 511.259918,936.080383 508.887421,934.595276 
	C469.357330,909.850891 429.662476,885.369446 391.541443,858.445923 
	C365.285065,839.901978 338.345398,822.274048 313.528900,801.788879 
	C290.791962,783.020203 269.903992,762.506531 257.443756,735.033142 
	C246.808121,711.583008 240.948517,687.169861 240.498581,661.220337 
	C239.894882,626.402649 239.830490,591.588013 239.501709,556.772278 
	C239.432693,549.463989 239.125687,542.130005 238.821396,534.815247 
	C238.623749,530.064209 240.238708,528.572754 245.078644,528.498108 
	C306.556335,527.550598 368.037231,527.864685 429.516937,527.816284 
	C450.177917,527.799988 470.838989,527.905640 492.000000,527.956543 
M552.501282,627.018188 
	C562.667358,615.327759 572.831604,603.635620 583.000122,591.947327 
	C590.763916,583.023315 598.546265,574.115417 606.284180,565.169067 
	C607.320862,563.970520 608.968994,562.811157 607.915283,560.881042 
	C607.081604,559.354004 605.440918,559.391052 603.925049,559.369812 
	C602.925293,559.355835 601.925293,559.351868 600.925415,559.351868 
	C572.428040,559.350342 543.929260,559.491516 515.434448,559.222168 
	C510.135742,559.172058 506.952942,560.781738 504.075836,565.220093 
	C491.122681,585.201965 477.798279,604.942627 464.679230,624.817505 
	C451.282562,645.113037 438.059509,665.524170 424.011108,685.381958 
	C423.054413,686.734314 421.824249,688.127808 422.543640,689.919373 
	C423.397003,692.044617 425.487976,691.858337 427.274323,691.884766 
	C435.429199,692.005371 443.585480,692.108032 451.740997,692.093872 
	C463.072662,692.074219 474.404114,691.884766 485.735626,691.889648 
	C490.564758,691.891724 491.185028,692.991638 488.916840,697.212219 
	C487.183929,700.436707 485.252167,703.554504 483.402344,706.716003 
	C462.709839,742.080627 442.031586,777.453552 421.308014,812.799988 
	C417.661713,819.019165 417.471252,819.027405 411.509369,815.154114 
	C391.251099,801.992981 370.988159,788.832214 352.159821,773.631042 
	C334.684723,759.522461 318.864044,743.987549 307.699402,724.121643 
	C295.049316,701.612610 289.703186,677.449585 289.793274,651.832153 
	C289.860657,632.667908 289.766418,613.502380 289.623260,594.338318 
	C289.553589,585.013245 289.147949,575.691040 289.016663,566.365784 
	C288.967438,562.867554 287.657654,561.016785 283.943268,561.330627 
	C282.619843,561.442444 281.265198,561.461548 279.947632,561.316345 
	C275.590179,560.836060 274.180542,562.669800 274.216614,567.048340 
	C274.413086,590.878113 273.917877,614.720947 274.529388,638.536987 
	C274.883392,652.323181 274.120087,666.271423 276.612579,679.897705 
	C283.347229,716.715515 300.651093,747.800232 328.931458,772.421814 
	C352.482574,792.926086 378.294891,810.420654 404.558502,827.197510 
	C439.092529,849.257324 473.892731,870.900146 508.490356,892.861145 
	C512.071777,895.134583 514.679993,895.155090 518.327698,892.829834 
	C542.209290,877.606445 566.343018,862.778809 590.233887,847.569702 
	C620.732666,828.153809 650.961670,808.342529 679.854126,786.541992 
	C700.302307,771.112915 717.773621,752.988159 731.373901,731.297241 
	C746.598572,707.015686 751.900696,679.916748 752.596985,651.746765 
	C753.288513,623.768005 753.538147,595.778503 754.007446,567.794128 
	C754.134888,560.195129 754.159851,560.175049 746.790710,560.085266 
	C745.791138,560.073120 744.790833,560.108826 743.791809,560.084717 
	C740.631592,560.008545 739.304321,561.569336 739.349060,564.689331 
	C739.480652,573.853088 738.818665,582.990356 738.434998,592.140503 
	C737.451599,615.597534 737.085510,639.080933 736.060364,662.535706 
	C735.134216,683.727417 730.368042,704.026978 720.141418,722.814514 
	C707.845215,745.404236 689.690369,762.896545 669.618530,778.172180 
	C621.433411,814.843140 569.242188,845.544739 518.312378,878.117310 
	C515.914368,879.650879 513.885437,879.742126 511.430328,878.200928 
	C484.624969,861.374268 457.767822,844.630066 430.943970,827.832825 
	C426.442719,825.014038 426.319672,824.167175 430.073883,820.350098 
	C463.616516,786.246277 498.345734,753.386475 534.093201,721.608459 
	C560.989380,697.699036 588.049255,673.973816 614.988525,650.112671 
	C616.356567,648.901001 618.565430,648.015015 618.108032,645.442322 
	C616.252380,643.690735 613.967041,644.383667 611.894592,644.376526 
	C590.063660,644.301147 568.232361,644.322510 546.401428,644.243591 
	C544.522705,644.236816 542.006104,645.121460 540.984924,642.860535 
	C539.904663,640.468750 542.067993,638.922607 543.462036,637.322754 
	C546.306824,634.057861 549.182129,630.819458 552.501282,627.018188 
z"/>
<path fill="#ffffffff" opacity="1.000000" stroke="none" 
	d="
M356.984436,504.320618 
	C349.320679,504.341339 342.130157,504.010834 334.996735,504.504944 
	C330.309753,504.829620 328.685028,503.013123 327.771973,498.754547 
	C322.201691,472.772980 316.421082,446.836517 310.724945,420.881866 
	C310.451447,419.635590 310.757477,418.102356 308.659515,417.716858 
	C306.700684,419.011688 306.912079,421.410217 306.467804,423.348480 
	C300.638000,448.781372 294.889740,474.233063 289.188293,499.695129 
	C288.440002,503.036957 287.144379,504.648438 283.202942,504.511963 
	C272.882629,504.154572 262.541626,504.413727 252.209122,504.371185 
	C250.422134,504.363831 248.535721,504.787323 246.495667,503.417480 
	C246.611084,497.095703 248.776825,490.952728 250.067413,484.686798 
	C260.752563,432.809265 273.242279,381.332733 284.624542,329.609680 
	C286.324677,321.884064 286.255463,321.971191 294.348541,321.877350 
	C303.999573,321.765442 313.686310,322.496460 323.287018,320.965546 
	C326.884827,320.391907 328.434753,322.123016 329.163177,325.380890 
	C334.887512,350.981750 340.635406,376.577515 346.484344,402.150085 
	C346.933990,404.115997 346.751343,406.511627 349.415039,408.395691 
	C351.616516,402.624969 352.379944,396.798065 353.605164,391.125671 
	C358.338226,369.213348 362.991486,347.283661 367.600281,325.344849 
	C368.023590,323.329712 368.601440,321.785095 370.932922,321.782196 
	C383.886993,321.766052 396.841064,321.774445 410.240936,321.774445 
	C410.285278,327.958099 408.476166,333.338837 407.281372,338.751923 
	C395.605591,391.649811 383.730713,444.503815 372.121429,497.416168 
	C370.985107,502.595245 368.895416,505.074005 363.475189,504.337555 
	C361.512817,504.070923 359.481659,504.310822 356.984436,504.320618 
z"/>
<path fill="#ffffffff" opacity="1.000000" stroke="none" 
	d="
M351.206787,293.316681 
	C366.028076,262.714233 380.729279,232.475616 395.312988,202.180450 
	C408.380646,175.034546 421.395996,147.862640 434.224213,120.603264 
	C435.978058,116.876472 438.058960,115.585602 442.144318,115.562828 
	C459.955963,115.463524 477.780304,116.278320 495.579773,115.074104 
	C500.315308,114.753716 500.368469,117.763634 500.364410,121.227409 
	C500.313812,164.365021 500.329437,207.502686 500.326813,250.640350 
	C500.325867,266.463043 500.191406,282.287506 500.401947,298.107361 
	C500.461639,302.590088 499.158691,304.147400 494.486633,304.257385 
	C481.817017,304.555695 469.201599,303.279510 456.554932,303.432617 
	C452.572449,303.480835 451.552704,301.442139 451.980438,298.123047 
	C452.749817,292.152496 452.518860,286.158905 452.710693,280.173004 
	C452.826477,276.558685 451.268799,274.809296 447.876495,274.680389 
	C435.896393,274.225220 423.911560,274.189117 411.931213,274.685211 
	C408.571503,274.824310 406.568298,276.718323 405.304230,279.830933 
	C402.487610,286.766815 399.441589,293.609253 396.524536,300.504791 
	C395.554321,302.798187 394.344513,304.447083 391.426208,304.356781 
	C377.619598,303.929718 363.808716,303.639130 350.000397,303.262909 
	C349.394897,303.246429 348.799316,302.867157 348.088501,302.618134 
	C347.916565,299.140686 349.799347,296.499969 351.206787,293.316681 
M445.417511,190.806870 
	C439.992706,204.024445 434.535522,217.228882 429.161682,230.467148 
	C427.405640,234.793106 428.307983,236.365631 432.941772,236.597168 
	C438.251495,236.862488 443.584869,236.615952 448.902313,236.778046 
	C453.169373,236.908127 454.850922,234.983322 454.850800,230.784424 
	C454.850281,212.997574 456.153961,195.227829 455.608246,177.432983 
	C455.552216,175.604767 456.228271,173.451370 453.536499,171.657516 
	C450.846222,178.033783 448.297241,184.075195 445.417511,190.806870 
z"/>
<path fill="#ffffffff" opacity="1.000000" stroke="none" 
	d="
M613.410095,504.277527 
	C609.560486,503.653076 610.231262,501.089355 610.279846,498.789948 
	C610.416870,492.296936 610.464600,485.801483 610.662231,479.310486 
	C610.767212,475.860840 608.947021,474.380035 605.815063,474.358459 
	C594.149475,474.278015 582.482910,474.331055 570.817322,474.250824 
	C567.781555,474.229950 566.951111,476.337097 566.077942,478.554840 
	C563.211121,485.836121 560.238464,493.077698 557.504456,500.408325 
	C556.186707,503.941467 554.190796,504.886444 550.317566,504.700684 
	C539.006165,504.157990 527.662231,504.309235 516.331970,504.127563 
	C514.557800,504.099091 512.673035,504.668152 511.050995,503.550079 
	C510.186310,501.677094 511.335266,500.236145 511.997406,498.779572 
	C536.462646,444.960602 560.961548,391.156982 585.442017,337.344940 
	C587.234985,333.403625 588.981628,329.438843 590.638245,325.438751 
	C591.522949,323.302582 592.908997,322.530640 595.244385,322.505676 
	C613.402710,322.311432 631.562256,322.093353 649.715393,321.642853 
	C654.146179,321.532867 655.427429,323.135315 655.418274,327.442108 
	C655.296387,384.607849 655.273376,441.774017 655.393188,498.939728 
	C655.402893,503.579926 653.737366,504.989441 649.328552,505.140564 
	C637.481140,505.546875 625.690918,504.253174 613.410095,504.277527 
M601.728516,396.076691 
	C596.949341,407.964630 592.104858,419.826904 587.423523,431.753235 
	C585.587158,436.431671 586.347107,437.532288 591.192139,437.651764 
	C596.518921,437.783203 601.854126,437.590515 607.179871,437.742157 
	C611.218811,437.857117 612.751770,436.222626 612.728821,432.104340 
	C612.629395,414.283691 612.791077,396.461731 612.793091,378.640228 
	C612.793274,377.126404 613.471619,375.264435 610.799744,373.808899 
	C607.850098,381.080902 604.950500,388.229614 601.728516,396.076691 
z"/>
<path fill="#ffffffff" opacity="1.000000" stroke="none" 
	d="
M585.978882,180.026947 
	C594.904785,185.908234 604.231018,190.471268 612.838074,196.100906 
	C624.496033,203.726059 634.983459,212.653259 637.393494,227.827423 
	C639.302490,239.846924 636.970581,251.268433 633.871826,262.723267 
	C630.462585,275.325836 624.255005,285.859558 613.588196,293.867676 
	C605.819946,299.699646 596.900879,301.198883 587.859558,302.223816 
	C570.092712,304.237915 552.269836,302.113647 534.468994,302.113617 
	C523.056824,302.113586 511.799866,287.868073 512.279541,276.311768 
	C512.709778,265.946960 514.997314,255.925964 516.575134,245.764572 
	C517.040039,242.770538 518.482117,241.751572 521.181274,241.760590 
	C533.342712,241.801178 545.504211,241.852661 557.665649,241.883392 
	C560.864380,241.891479 561.653320,243.638092 561.141602,246.463318 
	C560.520935,249.890381 559.762939,253.308563 559.419495,256.765869 
	C558.977966,261.211182 560.756104,264.193085 565.601685,264.705139 
	C567.742920,264.931396 569.856445,265.442932 571.999512,265.624939 
	C589.132812,267.080109 590.887451,258.843994 590.318665,242.646774 
	C590.191467,239.024185 587.057129,236.674210 583.987183,234.729660 
	C574.289246,228.586700 564.516724,222.526917 554.680176,216.651001 
	C538.056824,206.720963 530.406433,193.191574 533.634827,173.818130 
	C535.996887,159.643280 538.956726,145.772369 547.407715,133.641190 
	C555.847229,121.526520 567.919495,116.357147 581.959961,115.772163 
	C596.431152,115.169228 610.948547,115.513000 625.442444,115.697037 
	C631.095825,115.768822 636.613831,116.899078 641.640564,119.861137 
	C654.971191,127.716255 657.096558,139.664642 654.201233,153.553131 
	C653.083130,158.916840 651.976074,164.290543 651.136353,169.701981 
	C650.542603,173.528412 648.408691,175.199524 644.761963,175.213577 
	C634.599121,175.252731 624.435852,175.197403 614.273376,175.270279 
	C611.321838,175.291443 610.478760,173.805725 610.764771,171.186935 
	C611.070923,168.383102 611.563782,165.581268 611.615295,162.771957 
	C611.714905,157.338013 608.741882,153.854416 603.388245,153.513565 
	C598.239746,153.185776 592.984680,153.702927 588.107361,155.203979 
	C579.349670,157.899323 577.999756,173.097702 585.978882,180.026947 
z"/>
<path fill="#ffffffff" opacity="1.000000" stroke="none" 
	d="
M418.119446,359.423828 
	C419.641235,353.701965 421.534637,348.508850 424.072418,343.653229 
	C432.105194,328.283966 445.181854,320.691040 462.282776,319.640533 
	C476.760040,318.751160 491.225128,318.800873 505.723145,319.521942 
	C514.777710,319.972321 522.521851,322.704865 529.237549,328.828064 
	C536.858765,335.776825 537.026672,344.713501 535.894043,353.753357 
	C535.029175,360.656372 532.922485,367.395172 531.718872,374.268433 
	C531.191284,377.281433 529.826477,378.614319 526.918701,378.856964 
	C516.265015,379.746094 505.601410,379.184296 494.941345,379.157013 
	C492.237183,379.150085 491.518280,377.478363 491.707855,375.191193 
	C491.954437,372.216248 492.441986,369.258392 492.614746,366.280914 
	C492.865570,361.957550 490.553253,359.570343 486.521515,358.352448 
	C480.326141,356.481110 474.156281,357.556610 468.355103,359.286621 
	C462.005859,361.180084 462.245361,367.876648 460.934204,372.981262 
	C459.887451,377.056671 462.210419,380.400940 465.561554,382.741669 
	C472.928101,387.887115 480.630127,392.504364 488.530792,396.776093 
	C496.502533,401.086273 503.783844,406.213257 509.795898,413.107422 
	C518.576477,423.176331 519.213379,435.222992 517.971497,447.499359 
	C516.927917,457.814575 513.568542,467.625061 509.204071,477.035339 
	C501.407776,493.844940 488.776367,503.236450 469.763184,504.547974 
	C452.758636,505.721008 435.791382,505.110535 418.817688,505.085358 
	C409.733307,505.071899 402.094849,500.451172 396.609009,493.285522 
	C391.378448,486.453369 393.332153,478.219421 394.046143,470.556030 
	C394.690552,463.638916 396.546906,456.840759 397.705414,449.962646 
	C398.199829,447.027100 399.462738,445.610229 402.620605,445.644043 
	C414.283844,445.769073 425.949585,445.796600 437.613007,445.698456 
	C441.368469,445.666870 442.369232,447.205994 441.354889,450.608826 
	C440.297760,454.155243 440.346680,457.826111 440.145782,461.482758 
	C439.884369,466.241394 442.564545,468.249603 446.701508,468.527344 
	C451.180664,468.828033 455.710754,468.857025 460.188782,468.557861 
	C465.119049,468.228424 468.670197,465.827362 469.673920,460.580902 
	C470.266846,457.481842 471.085785,454.419617 471.545654,451.302856 
	C472.549042,444.501770 468.740509,440.622223 463.369690,437.266174 
	C451.527222,429.866211 439.458588,422.798035 428.154999,414.565186 
	C416.854065,406.334320 412.729553,394.952515 414.085510,381.360992 
	C414.811584,374.083130 416.147430,366.894043 418.119446,359.423828 
z"/>
<path fill="#ffffffff" opacity="1.000000" stroke="none" 
	d="
M105.639587,481.739014 
	C121.861908,442.979034 140.513245,405.743347 157.567932,367.779297 
	C163.775711,353.960693 170.248489,340.261200 176.469101,326.448273 
	C177.632248,323.865509 179.032913,322.613647 182.032684,322.583710 
	C198.352570,322.420868 214.669922,322.021149 230.989304,321.783020 
	C237.218216,321.692108 237.343552,321.884308 237.344650,328.262360 
	C237.354538,385.075134 237.299698,441.888092 237.450272,498.700470 
	C237.462936,503.483795 236.062759,505.268494 231.252609,505.077972 
	C220.273499,504.643066 209.281921,504.463715 198.293671,504.351654 
	C194.761017,504.315582 194.262177,502.517456 194.359558,499.560913 
	C194.584305,492.738251 194.472397,485.904694 194.686737,479.081512 
	C194.792282,475.722198 193.613342,474.225250 190.103104,474.248352 
	C178.441910,474.325195 166.777176,474.338684 155.119308,474.103302 
	C152.292618,474.046204 151.803848,475.784882 151.055069,477.580566 
	C148.108566,484.646545 145.037216,491.668091 142.361252,498.836456 
	C140.735565,503.191376 138.405884,504.865936 133.470886,504.582184 
	C123.171318,503.989899 112.821640,504.288177 102.493309,504.159088 
	C100.738655,504.137177 98.837135,504.709961 96.644768,502.840118 
	C99.549225,496.048798 102.532158,489.073944 105.639587,481.739014 
M196.399078,431.859924 
	C196.399078,412.517334 196.399078,393.174774 196.399078,373.080566 
	C194.995392,373.993286 194.601227,374.101257 194.510178,374.329926 
	C186.705704,393.930084 178.941620,413.546356 171.124680,433.141510 
	C169.877365,436.268219 171.111893,437.574707 174.138062,437.626434 
	C179.626511,437.720215 185.123856,437.550568 190.603775,437.796570 
	C194.400467,437.967041 196.219101,436.451904 196.399078,431.859924 
z"/>
<path fill="#ffffffff" opacity="1.000000" stroke="none" 
	d="
M362.575073,217.453537 
	C361.785156,219.887711 361.096710,221.938049 360.476196,224.008743 
	C356.708588,236.581802 356.719849,236.786743 343.607910,237.177917 
	C332.290527,237.515564 320.955475,237.454727 309.631897,237.300720 
	C304.396790,237.229523 302.243713,239.165543 301.068939,244.541550 
	C296.922821,263.514709 291.996796,282.316437 287.510620,301.217407 
	C286.940125,303.620972 286.024536,304.539764 283.538727,304.521606 
	C270.555389,304.426575 257.565613,303.853271 244.591217,304.930298 
	C240.910248,305.235870 240.665329,303.392761 241.413132,300.221313 
	C247.928101,272.591583 254.362793,244.942352 260.672455,217.264954 
	C268.015137,185.056244 275.246368,152.821899 282.394104,120.569450 
	C282.983429,117.910202 283.565430,116.537506 286.703613,116.548058 
	C322.681885,116.668961 358.660614,116.643768 394.639221,116.672417 
	C395.778656,116.673317 396.993469,116.489746 398.157440,117.568871 
	C398.118805,118.364418 398.268250,119.390053 397.995117,120.287010 
	C394.604523,131.420395 391.069397,142.510437 387.763763,153.668625 
	C386.687622,157.301147 384.691071,158.359985 380.921967,158.491760 
	C362.611450,159.131866 344.300385,159.522629 325.984528,159.215118 
	C321.819672,159.145187 320.029663,160.731674 319.282349,164.685394 
	C317.771484,172.678680 315.946564,180.613144 314.215332,188.564056 
	C312.770691,195.198761 313.111511,195.743393 320.048553,195.618652 
	C334.531677,195.358231 349.012390,194.964584 363.494354,194.637985 
	C365.279785,194.597717 367.066925,194.632477 370.055542,194.632477 
	C367.407410,202.722427 365.057678,209.900772 362.575073,217.453537 
z"/>
<path fill="#ffffffff" opacity="1.000000" stroke="none" 
	d="
M749.887329,159.502411 
	C747.058655,160.623764 746.959534,163.088440 746.559692,165.063614 
	C738.120605,206.750183 727.635376,247.964417 717.975403,289.368561 
	C717.409302,291.794830 716.835144,294.221527 716.362854,296.666962 
	C715.077942,303.320404 714.895691,303.672241 708.333435,302.989746 
	C697.684937,301.882355 687.022034,302.622528 676.370178,302.351227 
	C674.402161,302.301086 672.364929,302.729492 669.853210,301.317688 
	C671.906799,292.842896 674.038147,284.199799 676.093384,275.538666 
	C684.877991,238.518814 693.660522,201.498413 702.388855,164.465286 
	C703.699829,158.903427 702.581787,157.917130 696.931763,157.136322 
	C688.265930,155.938705 679.635193,156.761536 670.990540,156.959152 
	C666.964539,157.051193 665.202576,156.087387 666.512634,151.428558 
	C669.299683,141.516815 671.619019,131.469971 673.966125,121.440109 
	C674.769470,118.007317 676.302856,116.562729 680.099426,116.576828 
	C717.430298,116.715500 754.761841,116.653999 792.093201,116.670120 
	C793.394165,116.670677 794.695068,116.888641 795.979736,117.003822 
	C797.330444,119.973312 795.810547,122.445747 795.103455,124.873528 
	C792.266541,134.613998 789.132874,144.267944 786.286072,154.005646 
	C785.418884,156.971878 784.070923,158.352509 780.747437,158.400894 
	C770.593018,158.548752 760.443848,159.057068 749.887329,159.502411 
z"/>
<path fill="#ffffffff" opacity="1.000000" stroke="none" 
	d="
M782.844238,363.195129 
	C775.700317,363.251526 769.036987,363.351929 762.374573,363.309296 
	C758.825623,363.286591 757.081543,364.712860 756.255798,368.357086 
	C747.226929,408.200439 738.025940,448.004730 728.906189,487.827545 
	C727.906372,492.193542 727.094543,496.603546 726.247681,501.003204 
	C725.837646,503.133179 725.161316,504.950470 722.513611,504.762817 
	C709.369019,503.830902 696.205200,504.621857 683.054871,504.279968 
	C682.260132,504.259308 681.472717,503.958160 679.926208,503.624512 
	C681.727905,496.078339 683.475891,488.739685 685.232361,481.403046 
	C694.163391,444.098297 703.105652,406.796234 712.020325,369.487579 
	C713.519775,363.212341 713.087708,362.832977 706.787170,362.032471 
	C698.146057,360.934570 689.485596,361.590027 680.835876,361.392365 
	C679.219116,361.355438 677.513611,361.983459 675.566223,360.664673 
	C676.107178,353.573486 678.541809,346.682587 680.110168,339.630676 
	C681.083740,335.253174 682.770935,330.991241 683.322998,326.575531 
	C683.856934,322.305237 685.991211,321.626709 689.684937,321.636261 
	C724.334045,321.725769 758.983643,321.659088 793.632874,321.711731 
	C797.912354,321.718231 802.251221,321.106384 806.379822,322.186462 
	C807.214294,323.965729 806.331238,325.320862 805.910034,326.713959 
	C802.926819,336.580536 799.682434,346.376556 797.027588,356.330078 
	C795.860168,360.706604 794.041260,363.045563 789.284363,362.662781 
	C787.324463,362.505066 785.313110,362.988068 782.844238,363.195129 
z"/>
<path fill="#ffffffff" opacity="1.000000" stroke="none" 
	d="
M861.289429,471.032898 
	C858.934998,481.316833 856.514832,491.159821 854.435303,501.074249 
	C853.876770,503.737274 852.871216,504.793335 850.213257,504.750122 
	C838.058777,504.552429 825.902283,504.324524 813.747498,504.368469 
	C809.354309,504.384338 808.417664,503.079773 809.465576,498.733521 
	C819.780518,455.952148 829.897949,413.123108 840.061035,370.305145 
	C841.751160,363.184540 841.516602,362.389832 834.360657,361.821075 
	C826.744324,361.215759 819.056335,361.514771 811.399597,361.414001 
	C809.416809,361.387909 807.397400,361.750519 805.315002,360.819366 
	C804.100098,358.037567 805.581604,355.355225 806.180847,352.732239 
	C808.179138,343.984955 810.643005,335.342773 812.578735,326.583008 
	C813.422424,322.765137 815.199646,321.591370 819.055603,321.604675 
	C855.874084,321.731873 892.693176,321.667236 929.512085,321.687256 
	C931.294739,321.688232 933.190063,321.286865 934.784973,322.506531 
	C935.734924,324.629303 934.541870,326.469360 934.000122,328.319580 
	C931.103638,338.210999 927.985840,348.038696 925.182434,357.955627 
	C924.266541,361.195526 922.716125,362.235504 919.287964,362.516846 
	C909.969849,363.281525 900.647095,363.599274 891.339233,363.201202 
	C886.666016,363.001312 885.259033,365.270355 884.417480,369.092712 
	C879.382751,391.960022 874.329956,414.823669 869.174683,437.664032 
	C866.689148,448.676514 863.966736,459.635529 861.289429,471.032898 
z"/>
</svg>